HIERARCHY
ROOT Hips
{
 OFFSET 0.000000 0.000000 0.000000
 CHANNELS 6 Xposition Yposition Zposition Yrotation Xrotation Zrotation
 JOINT Chest
 {
  OFFSET 0.000000 9.585900 0.002600
  CHANNELS 3 Yrotation Xrotation Zrotation
  JOINT Chest2
  {
   OFFSET 0.000000 9.601200 -0.005300
   CHANNELS 3 Yrotation Xrotation Zrotation
   JOINT Chest3
   {
    OFFSET 0.000000 9.561800 0.000000
    CHANNELS 3 Yrotation Xrotation Zrotation
    JOINT Chest4
    {
     OFFSET 0.000000 9.552100 0.000000
     CHANNELS 3 Yrotation Xrotation Zrotation
     JOINT Neck
     {
      OFFSET 0.000000 14.453000 0.000000
      CHANNELS 3 Yrotation Xrotation Zrotation
      JOINT Head
      {
       OFFSET 0.000000 8.936500 -0.011300
       CHANNELS 3 Yrotation Xrotation Zrotation
       End Site
       {
        OFFSET 0.000000 17.073600 -0.006000
       }
      }
     }
     JOINT RightCollar
     {
      OFFSET -2.921100 9.558500 0.000000
      CHANNELS 3 Yrotation Xrotation Zrotation
      JOINT RightShoulder
      {
       OFFSET -13.519700 0.000000 0.000000
       CHANNELS 3 Yrotation Xrotation Zrotation
       JOINT RightElbow
       {
        OFFSET 0.000000 -29.696600 0.000000
        CHANNELS 3 Yrotation Xrotation Zrotation
        JOINT RightWrist
        {
         OFFSET 0.000000 -24.004700 0.000000
         CHANNELS 3 Yrotation Xrotation Zrotation
         End Site
         {
          OFFSET 0.000000 -17.728500 0.000000
         }
        }
       }
      }
     }
     JOINT LeftCollar
     {
      OFFSET 2.921100 9.558500 0.000000
      CHANNELS 3 Yrotation Xrotation Zrotation
      JOINT LeftShoulder
      {
       OFFSET 13.519700 0.000000 0.000000
       CHANNELS 3 Yrotation Xrotation Zrotation
       JOINT LeftElbow
       {
        OFFSET 0.000000 -29.696600 0.000000
        CHANNELS 3 Yrotation Xrotation Zrotation
        JOINT LeftWrist
        {
         OFFSET 0.000000 -24.004700 0.000000
         CHANNELS 3 Yrotation Xrotation Zrotation
         End Site
         {
          OFFSET 0.000000 -17.728500 0.000000
         }
        }
       }
      }
     }
    }
   }
  }
 }
 JOINT RightHip
 {
  OFFSET -7.771700 -0.012900 -0.001300
  CHANNELS 3 Yrotation Xrotation Zrotation
  JOINT RightKnee
  {
   OFFSET 0.000000 -40.869800 0.001200
   CHANNELS 3 Yrotation Xrotation Zrotation
   JOINT RightAnkle
   {
    OFFSET 0.000000 -39.717900 0.002100
    CHANNELS 3 Yrotation Xrotation Zrotation
    JOINT RightToe
    {
     OFFSET 0.000000 -4.965400 11.033500
     CHANNELS 3 Yrotation Xrotation Zrotation
     End Site
     {
      OFFSET 0.000000 -1.423100 5.872300
     }
    }
   }
  }
 }
 JOINT LeftHip
 {
  OFFSET 7.771700 -0.012900 -0.001300
  CHANNELS 3 Yrotation Xrotation Zrotation
  JOINT LeftKnee
  {
   OFFSET 0.000000 -40.869800 0.001200
   CHANNELS 3 Yrotation Xrotation Zrotation
   JOINT LeftAnkle
   {
    OFFSET 0.000000 -39.717900 0.002100
    CHANNELS 3 Yrotation Xrotation Zrotation
    JOINT LeftToe
    {
     OFFSET 0.000000 -4.965400 11.033500
     CHANNELS 3 Yrotation Xrotation Zrotation
     End Site
     {
      OFFSET 0.000000 -1.423100 5.872300
     }
    }
   }
  }
 }
}
MOTION
Frames: 15
Frame Time: 0.008333
-42.878641 43.986694 31.788164 176.321289 -24.074014 0.037616 0.255266 19.558235 3.703095 -0.064527 2.424317 0.508202 -0.084272 3.984017 0.836747 0.030467 16.860045 3.579308 0.471390 20.231715 -10.499390 2.983820 -3.623377 -11.781717 9.803796 -1.065574 -5.728737 -4.087879 -10.648537 0.087267 -115.709930 -84.113049 124.432696 -6.246672 -1.770630 -49.398137 -20.326728 -3.324897 -3.833109 12.702920 -7.005854 -3.096234 -128.789298 -75.351666 128.315871 13.297168 -6.024046 48.963427 1.499394 -68.380856 9.266390 -150.331708 69.031213 -149.905704 -14.972610 -24.517666 9.918174 0.213191 -0.854330 0.122178 3.459505 -56.966524 -5.652509 173.794406 62.955534 174.520083 -0.456029 -36.442736 1.491401 0.093508 0.298763 0.046920
-42.878683 43.986680 31.786871 176.321692 -24.075987 0.025536 0.251230 19.557939 3.710815 -0.061109 2.425796 0.509300 -0.098109 3.978359 0.830313 0.037608 16.865733 3.582320 0.550901 20.253614 -10.500758 3.074353 -3.589345 -11.800324 9.758090 -0.997001 -5.767112 -4.118833 -10.662855 0.125356 -115.105815 -84.039608 123.796835 -6.285944 -1.781135 -49.414797 -20.321895 -3.322897 -3.830762 12.701691 -6.977737 -3.094753 -129.050969 -75.494996 128.511359 13.352321 -5.966298 48.907610 1.486523 -68.375709 9.281254 -150.341127 69.034454 -149.909137 -14.955787 -24.525516 9.911394 0.218725 -0.844717 0.121308 3.454115 -56.964989 -5.642683 173.786284 62.952419 174.520504 -0.453806 -36.446388 1.487346 0.092745 0.299442 0.048160
-42.878866 43.986536 31.785012 176.326844 -24.082105 0.016441 0.240423 19.562037 3.712381 -0.066687 2.422218 0.502033 -0.088276 3.982281 0.836891 0.029199 16.860840 3.578806 0.636049 20.282492 -10.497639 3.168257 -3.553771 -11.812308 9.712837 -0.917500 -5.802148 -4.161382 -10.681889 0.159432 -114.382233 -83.952304 123.049390 -6.323130 -1.794553 -49.425624 -20.311661 -3.314696 -3.830547 12.703571 -6.923129 -3.053404 -129.403840 -75.572479 128.829070 13.471295 -5.877430 48.828181 1.469532 -68.364389 9.290936 -150.376720 69.037936 -149.945747 -14.924494 -24.545862 9.905534 0.223395 -0.826792 0.115837 3.480705 -56.958710 -5.668918 173.757350 62.948430 174.518022 -0.448367 -36.444943 1.478752 0.092681 0.295547 0.048999
-42.880573 43.986294 31.782378 176.333625 -24.093853 0.018898 0.225694 19.570157 3.693678 -0.062436 2.423450 0.506959 -0.089748 3.982996 0.838562 0.018693 16.855916 3.569599 0.730659 20.312257 -10.485857 3.264419 -3.520569 -11.818270 9.668734 -0.834342 -5.833210 -4.217791 -10.706860 0.193860 -113.609664 -83.864896 122.266797 -6.356115 -1.806037 -49.433561 -20.303772 -3.301486 -3.826218 12.718890 -6.902374 -3.023206 -129.676218 -75.757202 128.993030 13.468917 -5.864054 48.819356 1.467453 -68.348414 9.279739 -150.426260 69.041338 -149.994531 -14.935659 -24.567696 9.910952 0.212420 -0.809232 0.106747 3.498467 -56.945572 -5.693780 173.745425 62.945045 174.516595 -0.448868 -36.445144 1.475507 0.092712 0.292660 0.049608
-42.880329 43.985170 31.780924 176.340563 -24.100692 0.010838 0.220772 19.575621 3.696488 -0.063627 2.422136 0.503098 -0.088583 3.981851 0.838956 0.015206 16.855436 3.561801 0.820769 20.339412 -10.467291 3.362796 -3.490131 -11.820874 9.614528 -0.752338 -5.863582 -4.228321 -10.762030 0.237529 -112.755987 -83.814411 121.358527 -6.387532 -1.810648 -49.441692 -20.307282 -3.281233 -3.822202 12.734562 -6.897402 -2.988747 -129.842247 -75.915529 129.058456 13.459681 -5.853644 48.832997 1.435088 -68.337259 9.302689 -150.461868 69.046195 -150.023869 -14.956877 -24.591781 9.903753 0.203160 -0.792441 0.106303 3.498771 -56.940250 -5.698464 173.747207 62.941818 174.527214 -0.438464 -36.446268 1.470663 0.089611 0.292771 0.048184
-42.881651 43.983370 31.780131 176.342859 -24.105240 0.014232 0.216029 19.578859 3.687918 -0.064797 2.422315 0.500185 -0.089281 3.981018 0.835867 0.005903 16.857583 3.546929 0.923344 20.363071 -10.436203 3.461692 -3.462899 -11.821770 9.599070 -0.714914 -5.865432 -4.346760 -10.738743 0.246194 -112.110329 -83.742027 120.748122 -6.418143 -1.811810 -49.454897 -20.302769 -3.266528 -3.809031 12.745959 -6.897055 -2.961016 -129.862104 -76.009380 129.007082 13.474906 -5.814616 48.842367 1.432380 -68.330611 9.299918 -150.464555 69.045735 -150.029407 -14.969842 -24.611144 9.910883 0.192006 -0.778774 0.101502 3.513539 -56.936844 -5.717733 173.752809 62.939777 174.538069 -0.429127 -36.445589 1.467876 0.088707 0.293335 0.045320
-42.884609 43.981392 31.779145 176.347243 -24.113527 0.026114 0.205923 19.583996 3.668136 -0.066717 2.428329 0.499290 -0.093620 3.982554 0.828656 0.006591 16.861323 3.549731 0.976669 20.367423 -10.423008 3.596553 -3.435467 -11.827304 9.579626 -0.683832 -5.880693 -4.461928 -10.715767 0.254361 -111.552969 -83.689524 120.226693 -6.446855 -1.811990 -49.472667 -20.296076 -3.268651 -3.801626 12.749546 -6.897898 -2.951840 -129.756754 -76.073856 128.836854 13.485474 -5.767031 48.846344 1.454382 -68.321504 9.269901 -150.469726 69.044805 -150.036858 -15.002882 -24.626090 9.929775 0.217539 -0.765967 0.095685 3.534043 -56.929059 -5.748455 173.748621 62.938263 174.535745 -0.428501 -36.444024 1.467539 0.088243 0.293209 0.044489
-42.885215 43.978938 31.779285 176.348436 -24.118785 0.023700 0.203215 19.591315 3.662623 -0.067050 2.431094 0.502635 -0.093037 3.981606 0.829247 -0.003964 16.875014 3.542949 1.031699 20.362878 -10.410737 3.728243 -3.413289 -11.832428 9.540360 -0.628067 -5.914446 -4.515382 -10.741063 0.283151 -111.068451 -83.672522 119.733430 -6.473599 -1.810741 -49.488193 -20.285178 -3.280874 -3.792460 12.740424 -6.892735 -2.923198 -129.665556 -76.134250 128.703555 13.495630 -5.713248 48.827113 1.445671 -68.315596 9.276437 -150.475202 69.045447 -150.044162 -15.003282 -24.639381 9.934058 0.198655 -0.758671 0.090573 3.529799 -56.927149 -5.744429 173.752081 62.934025 174.538541 -0.426697 -36.445701 1.468023 0.085985 0.294836 0.042670
-42.887803 43.976224 31.780161 176.360467 -24.121630 0.026979 0.186024 19.600619 3.649752 -0.064482 2.426849 0.504882 -0.094828 3.984837 0.828306 -0.010861 16.893158 3.540308 1.174011 20.387531 -10.382234 3.763927 -3.412787 -11.827609 9.503768 -0.585288 -5.946435 -4.550393 -10.760672 0.299407 -110.692661 -83.676775 119.328482 -6.495732 -1.807733 -49.499897 -20.283756 -3.297120 -3.793054 12.727658 -6.895543 -2.885885 -129.542255 -76.183493 128.556419 13.508189 -5.652430 48.780854 1.457762 -68.313869 9.252705 -150.484379 69.046137 -150.049352 -15.035056 -24.646270 9.944046 0.194312 -0.752622 0.087547 3.531459 -56.929089 -5.760378 173.751368 62.933555 174.537360 -0.428886 -36.441854 1.467049 0.087684 0.296560 0.044639
-42.888370 43.972624 31.783952 176.344916 -24.109064 0.027021 0.198781 19.597598 3.652217 -0.065034 2.429386 0.505267 -0.095359 3.988772 0.828712 -0.017557 16.908107 3.536355 1.275694 20.397678 -10.361126 3.833325 -3.410773 -11.827095 9.475785 -0.558127 -5.978799 -4.550877 -10.795744 0.322992 -110.313748 -83.722681 118.883935 -6.509747 -1.799480 -49.510276 -20.284259 -3.313789 -3.795383 12.696860 -6.903765 -2.832575 -129.523890 -76.218798 128.561967 13.515578 -5.563301 48.697784 1.462192 -68.329652 9.262139 -150.467166 69.055229 -150.029554 -15.039400 -24.641352 9.943380 0.208603 -0.745511 0.086145 3.537930 -56.945627 -5.750366 173.751295 62.930865 174.537436 -0.427393 -36.446108 1.465611 0.085398 0.302490 0.044468
-42.889930 43.970040 31.786657 176.344893 -24.105317 0.026055 0.195915 19.607379 3.647823 -0.065671 2.432709 0.505288 -0.106209 4.021104 0.822171 -0.013608 16.894427 3.538156 1.325618 20.381038 -10.350311 3.947216 -3.392820 -11.828400 9.410825 -0.505006 -6.010632 -4.545303 -10.836613 0.316699 -110.151541 -83.738690 118.686987 -6.518400 -1.785393 -49.519073 -20.268791 -3.343001 -3.782542 12.667646 -6.901597 -2.800444 -129.482376 -76.245672 128.532175 13.521386 -5.535906 48.660259 1.475957 -68.338502 9.241614 -150.486461 69.057129 -150.044676 -15.006698 -24.637726 9.935117 0.208337 -0.751056 0.083249 3.543464 -56.955084 -5.748759 173.756200 62.928801 174.540104 -0.430768 -36.443645 1.472120 0.084944 0.303666 0.043752
-42.890260 43.967601 31.790775 176.352235 -24.094081 0.013658 0.186491 19.615951 3.648564 -0.072621 2.457705 0.498529 -0.098565 4.003430 0.828994 -0.016817 16.903319 3.535914 1.370900 20.364618 -10.338272 4.053837 -3.372933 -11.828132 9.366704 -0.483423 -6.015660 -4.547396 -10.858124 0.268237 -109.983859 -83.761143 118.480081 -6.527661 -1.768914 -49.525211 -20.256600 -3.369457 -3.774476 12.657698 -6.907262 -2.781600 -129.300243 -76.265040 128.332955 13.525407 -5.483068 48.550552 1.440470 -68.354090 9.268435 -150.483913 69.057325 -150.046760 -14.969594 -24.629790 9.921250 0.188382 -0.759737 0.083892 3.524642 -56.976631 -5.720562 173.756866 62.925279 174.534673 -0.450779 -36.436655 1.485215 0.083677 0.303344 0.044162
-42.890128 43.965396 31.796478 176.341587 -24.072840 0.005123 0.196062 19.614473 3.653593 -0.070595 2.454189 0.500570 -0.100310 4.011081 0.828425 -0.019404 16.910525 3.534831 1.441649 20.372546 -10.322515 4.120125 -3.364921 -11.821950 9.330146 -0.471100 -6.002291 -4.547255 -10.889106 0.197862 -109.716160 -83.798927 118.171886 -6.538683 -1.752739 -49.529413 -20.240125 -3.401119 -3.796202 12.639434 -6.910639 -2.735339 -129.150776 -76.274677 128.162250 13.518594 -5.440877 48.457495 1.406296 -68.379865 9.314837 -150.424034 69.057451 -149.995026 -14.944163 -24.611023 9.913292 0.190209 -0.765320 0.084907 3.516359 -57.004054 -5.694535 173.758723 62.923844 174.534898 -0.454303 -36.438001 1.487873 0.084356 0.308558 0.042806
-42.890908 43.965031 31.800204 176.341840 -24.063102 -0.001463 0.194802 19.622879 3.652546 -0.067216 2.441442 0.505774 -0.106864 4.024836 0.825986 -0.023610 16.914391 3.534239 1.557079 20.419532 -10.290962 4.130828 -3.377969 -11.818468 9.296585 -0.453997 -5.974127 -4.552206 -10.930397 0.099370 -109.387422 -83.776092 117.854033 -6.501064 -1.715589 -49.572501 -20.214358 -3.426287 -3.816644 12.613847 -6.941530 -2.678192 -128.926607 -76.302832 127.928989 13.539760 -5.446675 48.430083 1.377805 -68.391834 9.344713 -150.396381 69.059115 -149.972583 -14.935837 -24.595339 9.906193 0.194691 -0.772336 0.088386 3.504981 -57.018209 -5.677624 173.758125 62.924656 174.530327 -0.457844 -36.435758 1.491459 0.083197 0.310555 0.041346
-42.890477 43.964678 31.806231 176.327276 -24.036536 -0.009671 0.198949 19.627476 3.654365 -0.055574 2.426537 0.510712 -0.115288 4.024906 0.825137 -0.023315 16.912529 3.534863 1.611991 20.434319 -10.275697 4.195232 -3.360652 -11.817134 9.264871 -0.431937 -5.928536 -4.565786 -10.982802 -0.025944 -108.896497 -83.748213 117.384026 -6.460665 -1.692102 -49.605211 -20.184077 -3.446506 -3.852881 12.600914 -6.967092 -2.627593 -128.834456 -76.316680 127.827795 13.540280 -5.423243 48.386998 1.346792 -68.419279 9.392522 -150.305831 69.061490 -149.886610 -14.922116 -24.576221 9.898320 0.199621 -0.772157 0.091438 3.488547 -57.050466 -5.637963 173.758152 62.925306 174.521630 -0.467644 -36.431909 1.497404 0.084626 0.310935 0.039520
